<svg width="156" height="156" viewBox="0 0 156 156" fill="none" xmlns="http://www.w3.org/2000/svg">
<path d="M78 0L82.6607 48.5735L102.103 3.81759L91.5259 51.4539L123.847 14.8967L99.0671 56.9329L141.103 32.1528L104.546 64.4741L152.182 53.8967L107.427 73.3393L156 78L107.427 82.6607L152.182 102.103L104.546 91.5259L141.103 123.847L99.0671 99.0671L123.847 141.103L91.5259 104.546L102.103 152.182L82.6607 107.427L78 156L73.3393 107.427L53.8967 152.182L64.4741 104.546L32.1528 141.103L56.9329 99.0671L14.8967 123.847L51.4539 91.5259L3.81759 102.103L48.5735 82.6607L0 78L48.5735 73.3393L3.81759 53.8967L51.4539 64.4741L14.8967 32.1528L56.9329 56.9329L32.1528 14.8967L64.4741 51.4539L53.8967 3.81759L73.3393 48.5735L78 0Z" fill="#F73D17"/>
</svg>
